<?xml version="1.0" encoding="UTF-8" standalone="no"?>
<!-- Created with Inkscape (http://www.inkscape.org/) -->

<svg
   xmlns:dc="http://purl.org/dc/elements/1.1/"
   xmlns:cc="http://creativecommons.org/ns#"
   xmlns:rdf="http://www.w3.org/1999/02/22-rdf-syntax-ns#"
   xmlns:svg="http://www.w3.org/2000/svg"
   xmlns="http://www.w3.org/2000/svg"
   xmlns:sodipodi="http://sodipodi.sourceforge.net/DTD/sodipodi-0.dtd"
   xmlns:inkscape="http://www.inkscape.org/namespaces/inkscape"
   version="1.1"
   id="svg2"
   xml:space="preserve"
   width="688"
   height="368"
   viewBox="0 0 688 368"
   sodipodi:docname="avg_sil.svg"
   inkscape:version="0.92.5 (2060ec1f9f, 2020-04-08)"><metadata
     id="metadata8"><rdf:RDF><cc:Work
         rdf:about=""><dc:format>image/svg+xml</dc:format><dc:type
           rdf:resource="http://purl.org/dc/dcmitype/StillImage" /><dc:title></dc:title></cc:Work></rdf:RDF></metadata><defs
     id="defs6"><clipPath
       clipPathUnits="userSpaceOnUse"
       id="clipPath42"><path
         d="M 40.96,31.71 H 510.52 V 271.27 H 40.96 Z"
         id="path40"
         inkscape:connector-curvature="0" /></clipPath></defs><sodipodi:namedview
     pagecolor="#ffffff"
     bordercolor="#666666"
     borderopacity="1"
     objecttolerance="10"
     gridtolerance="10"
     guidetolerance="10"
     inkscape:pageopacity="0"
     inkscape:pageshadow="2"
     inkscape:window-width="1848"
     inkscape:window-height="1376"
     id="namedview4"
     showgrid="false"
     inkscape:zoom="1"
     inkscape:cx="344"
     inkscape:cy="184"
     inkscape:window-x="72"
     inkscape:window-y="27"
     inkscape:window-maximized="1"
     inkscape:current-layer="g10" /><g
     id="g10"
     inkscape:groupmode="layer"
     inkscape:label="avg_sil"
     transform="matrix(1.3333333,0,0,-1.3333333,0,368)"><g
       id="g12" /><g
       id="g14" /><g
       id="g16" /><g
       id="g18" /><g
       id="g20" /><g
       id="g22" /><g
       id="g24" /><g
       id="g26" /><g
       id="g28" /><g
       id="g34" /><g
       id="g36"><g
         id="g38"
         clip-path="url(#clipPath42)"><path
           d="m 62.31,221.7 23.71,38.68 23.72,-160.55 23.71,-2.42 23.72,-20.67 23.71,-34.14 23.72,84.47 23.71,-45.42 23.72,66.18 23.71,-79.95 23.72,19.07 23.71,-0.26 23.72,-9.8 23.71,1.97 23.72,-4.69 23.71,-3.77 23.72,10.18 23.71,0.75 23.72,0.15"
           style="fill:none;stroke:#000000;stroke-width:2.13000011;stroke-linecap:butt;stroke-linejoin:round;stroke-miterlimit:10;stroke-dasharray:none;stroke-opacity:1"
           id="path44"
           inkscape:connector-curvature="0" /><path
           d="m 59.82,221.7 c 0,1.37 1.12,2.49 2.49,2.49 1.36,0 2.48,-1.12 2.48,-2.49 0,-1.37 -1.12,-2.48 -2.48,-2.48 -1.37,0 -2.49,1.11 -2.49,2.48"
           style="fill:#000000;fill-opacity:1;fill-rule:nonzero;stroke:#000000;stroke-width:0.70999998;stroke-linecap:round;stroke-linejoin:round;stroke-miterlimit:10;stroke-dasharray:none;stroke-opacity:1"
           id="path46"
           inkscape:connector-curvature="0" /><path
           d="m 83.53,260.38 c 0,1.37 1.12,2.49 2.49,2.49 1.37,0 2.49,-1.12 2.49,-2.49 0,-1.37 -1.12,-2.49 -2.49,-2.49 -1.37,0 -2.49,1.12 -2.49,2.49"
           style="fill:#000000;fill-opacity:1;fill-rule:nonzero;stroke:#000000;stroke-width:0.70999998;stroke-linecap:round;stroke-linejoin:round;stroke-miterlimit:10;stroke-dasharray:none;stroke-opacity:1"
           id="path48"
           inkscape:connector-curvature="0" /><path
           d="m 107.25,99.83 c 0,1.36 1.12,2.48 2.49,2.48 1.36,0 2.48,-1.12 2.48,-2.48 0,-1.37 -1.12,-2.49 -2.48,-2.49 -1.37,0 -2.49,1.12 -2.49,2.49"
           style="fill:#000000;fill-opacity:1;fill-rule:nonzero;stroke:#000000;stroke-width:0.70999998;stroke-linecap:round;stroke-linejoin:round;stroke-miterlimit:10;stroke-dasharray:none;stroke-opacity:1"
           id="path50"
           inkscape:connector-curvature="0" /><path
           d="m 130.96,97.41 c 0,1.37 1.12,2.49 2.49,2.49 1.37,0 2.49,-1.12 2.49,-2.49 0,-1.37 -1.12,-2.49 -2.49,-2.49 -1.37,0 -2.49,1.12 -2.49,2.49"
           style="fill:#000000;fill-opacity:1;fill-rule:nonzero;stroke:#000000;stroke-width:0.70999998;stroke-linecap:round;stroke-linejoin:round;stroke-miterlimit:10;stroke-dasharray:none;stroke-opacity:1"
           id="path52"
           inkscape:connector-curvature="0" /><path
           d="m 154.68,76.74 c 0,1.37 1.12,2.49 2.49,2.49 1.37,0 2.48,-1.12 2.48,-2.49 0,-1.37 -1.11,-2.49 -2.48,-2.49 -1.37,0 -2.49,1.12 -2.49,2.49"
           style="fill:#000000;fill-opacity:1;fill-rule:nonzero;stroke:#000000;stroke-width:0.70999998;stroke-linecap:round;stroke-linejoin:round;stroke-miterlimit:10;stroke-dasharray:none;stroke-opacity:1"
           id="path54"
           inkscape:connector-curvature="0" /><path
           d="m 178.39,42.6 c 0,1.37 1.12,2.49 2.49,2.49 1.37,0 2.49,-1.12 2.49,-2.49 0,-1.37 -1.12,-2.49 -2.49,-2.49 -1.37,0 -2.49,1.12 -2.49,2.49"
           style="fill:#000000;fill-opacity:1;fill-rule:nonzero;stroke:#000000;stroke-width:0.70999998;stroke-linecap:round;stroke-linejoin:round;stroke-miterlimit:10;stroke-dasharray:none;stroke-opacity:1"
           id="path56"
           inkscape:connector-curvature="0" /><path
           d="m 202.11,127.07 c 0,1.37 1.12,2.49 2.49,2.49 1.37,0 2.48,-1.12 2.48,-2.49 0,-1.37 -1.11,-2.49 -2.48,-2.49 -1.37,0 -2.49,1.12 -2.49,2.49"
           style="fill:#000000;fill-opacity:1;fill-rule:nonzero;stroke:#000000;stroke-width:0.70999998;stroke-linecap:round;stroke-linejoin:round;stroke-miterlimit:10;stroke-dasharray:none;stroke-opacity:1"
           id="path58"
           inkscape:connector-curvature="0" /><path
           d="m 225.82,81.65 c 0,1.37 1.12,2.49 2.49,2.49 1.37,0 2.49,-1.12 2.49,-2.49 0,-1.37 -1.12,-2.49 -2.49,-2.49 -1.37,0 -2.49,1.12 -2.49,2.49"
           style="fill:#000000;fill-opacity:1;fill-rule:nonzero;stroke:#000000;stroke-width:0.70999998;stroke-linecap:round;stroke-linejoin:round;stroke-miterlimit:10;stroke-dasharray:none;stroke-opacity:1"
           id="path60"
           inkscape:connector-curvature="0" /><path
           d="m 249.54,147.83 c 0,1.37 1.12,2.49 2.49,2.49 1.37,0 2.48,-1.12 2.48,-2.49 0,-1.37 -1.11,-2.49 -2.48,-2.49 -1.37,0 -2.49,1.12 -2.49,2.49"
           style="fill:#000000;fill-opacity:1;fill-rule:nonzero;stroke:#000000;stroke-width:0.70999998;stroke-linecap:round;stroke-linejoin:round;stroke-miterlimit:10;stroke-dasharray:none;stroke-opacity:1"
           id="path62"
           inkscape:connector-curvature="0" /><path
           d="m 273.25,67.88 c 0,1.36 1.12,2.48 2.49,2.48 1.37,0 2.49,-1.12 2.49,-2.48 0,-1.37 -1.12,-2.49 -2.49,-2.49 -1.37,0 -2.49,1.12 -2.49,2.49"
           style="fill:#000000;fill-opacity:1;fill-rule:nonzero;stroke:#000000;stroke-width:0.70999998;stroke-linecap:round;stroke-linejoin:round;stroke-miterlimit:10;stroke-dasharray:none;stroke-opacity:1"
           id="path64"
           inkscape:connector-curvature="0" /><path
           d="m 296.97,86.95 c 0,1.36 1.12,2.48 2.49,2.48 1.37,0 2.49,-1.12 2.49,-2.48 0,-1.37 -1.12,-2.49 -2.49,-2.49 -1.37,0 -2.49,1.12 -2.49,2.49"
           style="fill:#000000;fill-opacity:1;fill-rule:nonzero;stroke:#000000;stroke-width:0.70999998;stroke-linecap:round;stroke-linejoin:round;stroke-miterlimit:10;stroke-dasharray:none;stroke-opacity:1"
           id="path66"
           inkscape:connector-curvature="0" /><path
           d="m 320.68,86.69 c 0,1.37 1.12,2.49 2.49,2.49 1.37,0 2.49,-1.12 2.49,-2.49 0,-1.37 -1.12,-2.49 -2.49,-2.49 -1.37,0 -2.49,1.12 -2.49,2.49"
           style="fill:#000000;fill-opacity:1;fill-rule:nonzero;stroke:#000000;stroke-width:0.70999998;stroke-linecap:round;stroke-linejoin:round;stroke-miterlimit:10;stroke-dasharray:none;stroke-opacity:1"
           id="path68"
           inkscape:connector-curvature="0" /><path
           d="m 344.4,76.89 c 0,1.37 1.12,2.49 2.49,2.49 1.37,0 2.49,-1.12 2.49,-2.49 0,-1.37 -1.12,-2.49 -2.49,-2.49 -1.37,0 -2.49,1.12 -2.49,2.49"
           style="fill:#000000;fill-opacity:1;fill-rule:nonzero;stroke:#000000;stroke-width:0.70999998;stroke-linecap:round;stroke-linejoin:round;stroke-miterlimit:10;stroke-dasharray:none;stroke-opacity:1"
           id="path70"
           inkscape:connector-curvature="0" /><path
           d="m 368.11,78.86 c 0,1.37 1.12,2.49 2.49,2.49 1.37,0 2.49,-1.12 2.49,-2.49 0,-1.36 -1.12,-2.48 -2.49,-2.48 -1.37,0 -2.49,1.12 -2.49,2.48"
           style="fill:#000000;fill-opacity:1;fill-rule:nonzero;stroke:#000000;stroke-width:0.70999998;stroke-linecap:round;stroke-linejoin:round;stroke-miterlimit:10;stroke-dasharray:none;stroke-opacity:1"
           id="path72"
           inkscape:connector-curvature="0" /><path
           d="m 391.83,74.17 c 0,1.37 1.12,2.49 2.49,2.49 1.37,0 2.49,-1.12 2.49,-2.49 0,-1.37 -1.12,-2.49 -2.49,-2.49 -1.37,0 -2.49,1.12 -2.49,2.49"
           style="fill:#000000;fill-opacity:1;fill-rule:nonzero;stroke:#000000;stroke-width:0.70999998;stroke-linecap:round;stroke-linejoin:round;stroke-miterlimit:10;stroke-dasharray:none;stroke-opacity:1"
           id="path74"
           inkscape:connector-curvature="0" /><path
           d="m 415.54,70.4 c 0,1.37 1.12,2.49 2.49,2.49 1.37,0 2.49,-1.12 2.49,-2.49 0,-1.37 -1.12,-2.49 -2.49,-2.49 -1.37,0 -2.49,1.12 -2.49,2.49"
           style="fill:#000000;fill-opacity:1;fill-rule:nonzero;stroke:#000000;stroke-width:0.70999998;stroke-linecap:round;stroke-linejoin:round;stroke-miterlimit:10;stroke-dasharray:none;stroke-opacity:1"
           id="path76"
           inkscape:connector-curvature="0" /><path
           d="m 439.26,80.58 c 0,1.37 1.12,2.49 2.49,2.49 1.37,0 2.49,-1.12 2.49,-2.49 0,-1.37 -1.12,-2.49 -2.49,-2.49 -1.37,0 -2.49,1.12 -2.49,2.49"
           style="fill:#000000;fill-opacity:1;fill-rule:nonzero;stroke:#000000;stroke-width:0.70999998;stroke-linecap:round;stroke-linejoin:round;stroke-miterlimit:10;stroke-dasharray:none;stroke-opacity:1"
           id="path78"
           inkscape:connector-curvature="0" /><path
           d="m 462.97,81.33 c 0,1.37 1.12,2.49 2.49,2.49 1.37,0 2.49,-1.12 2.49,-2.49 0,-1.37 -1.12,-2.49 -2.49,-2.49 -1.37,0 -2.49,1.12 -2.49,2.49"
           style="fill:#000000;fill-opacity:1;fill-rule:nonzero;stroke:#000000;stroke-width:0.70999998;stroke-linecap:round;stroke-linejoin:round;stroke-miterlimit:10;stroke-dasharray:none;stroke-opacity:1"
           id="path80"
           inkscape:connector-curvature="0" /><path
           d="m 486.69,81.48 c 0,1.37 1.12,2.49 2.49,2.49 1.37,0 2.49,-1.12 2.49,-2.49 0,-1.37 -1.12,-2.49 -2.49,-2.49 -1.37,0 -2.49,1.12 -2.49,2.49"
           style="fill:#000000;fill-opacity:1;fill-rule:nonzero;stroke:#000000;stroke-width:0.70999998;stroke-linecap:round;stroke-linejoin:round;stroke-miterlimit:10;stroke-dasharray:none;stroke-opacity:1"
           id="path82"
           inkscape:connector-curvature="0" /></g></g><g
       id="g84" /><g
       id="g86" /><g
       id="g88" /><g
       id="g90" /><g
       id="g92" /><g
       id="g94" /><g
       id="g96" /><g
       id="g98" /><g
       id="g100" /><g
       id="g102" /><g
       id="g104" /><g
       id="g106" /><g
       id="g108"><path
         d="M 40.96,31.71 V 271.27"
         style="fill:none;stroke:#000000;stroke-width:1.07000005;stroke-linecap:butt;stroke-linejoin:round;stroke-miterlimit:10;stroke-dasharray:none;stroke-opacity:1"
         id="path110"
         inkscape:connector-curvature="0" /></g><g
       id="g112" /><g
       id="g114" /><g
       id="g116"><text
         transform="matrix(1,0,0,-1,18.52,62.54)"
         style="font-variant:normal;font-weight:normal;font-size:9px;font-family:Helvetica;-inkscape-font-specification:Helvetica;writing-mode:lr-tb;fill:#4d4d4d;fill-opacity:1;fill-rule:nonzero;stroke:none"
         id="text120"><tspan
           x="0 5.0040002 7.506 12.51"
           y="0"
           sodipodi:role="line"
           id="tspan118">0.43</tspan></text>
<text
         transform="matrix(1,0,0,-1,18.52,103.07)"
         style="font-variant:normal;font-weight:normal;font-size:9px;font-family:Helvetica;-inkscape-font-specification:Helvetica;writing-mode:lr-tb;fill:#4d4d4d;fill-opacity:1;fill-rule:nonzero;stroke:none"
         id="text124"><tspan
           x="0 5.0040002 7.506 12.51"
           y="0"
           sodipodi:role="line"
           id="tspan122">0.44</tspan></text>
<text
         transform="matrix(1,0,0,-1,18.52,143.6)"
         style="font-variant:normal;font-weight:normal;font-size:9px;font-family:Helvetica;-inkscape-font-specification:Helvetica;writing-mode:lr-tb;fill:#4d4d4d;fill-opacity:1;fill-rule:nonzero;stroke:none"
         id="text128"><tspan
           x="0 5.0040002 7.506 12.51"
           y="0"
           sodipodi:role="line"
           id="tspan126">0.45</tspan></text>
<text
         transform="matrix(1,0,0,-1,18.52,184.14)"
         style="font-variant:normal;font-weight:normal;font-size:9px;font-family:Helvetica;-inkscape-font-specification:Helvetica;writing-mode:lr-tb;fill:#4d4d4d;fill-opacity:1;fill-rule:nonzero;stroke:none"
         id="text132"><tspan
           x="0 5.0040002 7.506 12.51"
           y="0"
           sodipodi:role="line"
           id="tspan130">0.46</tspan></text>
<text
         transform="matrix(1,0,0,-1,18.52,224.67)"
         style="font-variant:normal;font-weight:normal;font-size:9px;font-family:Helvetica;-inkscape-font-specification:Helvetica;writing-mode:lr-tb;fill:#4d4d4d;fill-opacity:1;fill-rule:nonzero;stroke:none"
         id="text136"><tspan
           x="0 5.0040002 7.506 12.51"
           y="0"
           sodipodi:role="line"
           id="tspan134">0.47</tspan></text>
<text
         transform="matrix(1,0,0,-1,18.52,265.2)"
         style="font-variant:normal;font-weight:normal;font-size:9px;font-family:Helvetica;-inkscape-font-specification:Helvetica;writing-mode:lr-tb;fill:#4d4d4d;fill-opacity:1;fill-rule:nonzero;stroke:none"
         id="text140"><tspan
           x="0 5.0040002 7.506 12.51"
           y="0"
           sodipodi:role="line"
           id="tspan138">0.48</tspan></text>
</g><g
       id="g142" /><g
       id="g144" /><g
       id="g146"><path
         d="m 38.22,65.77 h 2.74"
         style="fill:none;stroke:#333333;stroke-width:1.07000005;stroke-linecap:butt;stroke-linejoin:round;stroke-miterlimit:10;stroke-dasharray:none;stroke-opacity:1"
         id="path148"
         inkscape:connector-curvature="0" /><path
         d="m 38.22,106.3 h 2.74"
         style="fill:none;stroke:#333333;stroke-width:1.07000005;stroke-linecap:butt;stroke-linejoin:round;stroke-miterlimit:10;stroke-dasharray:none;stroke-opacity:1"
         id="path150"
         inkscape:connector-curvature="0" /><path
         d="m 38.22,146.83 h 2.74"
         style="fill:none;stroke:#333333;stroke-width:1.07000005;stroke-linecap:butt;stroke-linejoin:round;stroke-miterlimit:10;stroke-dasharray:none;stroke-opacity:1"
         id="path152"
         inkscape:connector-curvature="0" /><path
         d="m 38.22,187.37 h 2.74"
         style="fill:none;stroke:#333333;stroke-width:1.07000005;stroke-linecap:butt;stroke-linejoin:round;stroke-miterlimit:10;stroke-dasharray:none;stroke-opacity:1"
         id="path154"
         inkscape:connector-curvature="0" /><path
         d="m 38.22,227.9 h 2.74"
         style="fill:none;stroke:#333333;stroke-width:1.07000005;stroke-linecap:butt;stroke-linejoin:round;stroke-miterlimit:10;stroke-dasharray:none;stroke-opacity:1"
         id="path156"
         inkscape:connector-curvature="0" /><path
         d="m 38.22,268.43 h 2.74"
         style="fill:none;stroke:#333333;stroke-width:1.07000005;stroke-linecap:butt;stroke-linejoin:round;stroke-miterlimit:10;stroke-dasharray:none;stroke-opacity:1"
         id="path158"
         inkscape:connector-curvature="0" /></g><g
       id="g160" /><g
       id="g162" /><g
       id="g164" /><g
       id="g166" /><g
       id="g168" /><g
       id="g170" /><g
       id="g172" /><g
       id="g174"><path
         d="M 40.96,31.71 H 510.52"
         style="fill:none;stroke:#000000;stroke-width:1.07000005;stroke-linecap:butt;stroke-linejoin:round;stroke-miterlimit:10;stroke-dasharray:none;stroke-opacity:1"
         id="path176"
         inkscape:connector-curvature="0" /></g><g
       id="g178" /><g
       id="g180" /><g
       id="g182"><path
         d="m 62.31,28.97 v 2.74"
         style="fill:none;stroke:#333333;stroke-width:1.07000005;stroke-linecap:butt;stroke-linejoin:round;stroke-miterlimit:10;stroke-dasharray:none;stroke-opacity:1"
         id="path184"
         inkscape:connector-curvature="0" /><path
         d="m 86.02,28.97 v 2.74"
         style="fill:none;stroke:#333333;stroke-width:1.07000005;stroke-linecap:butt;stroke-linejoin:round;stroke-miterlimit:10;stroke-dasharray:none;stroke-opacity:1"
         id="path186"
         inkscape:connector-curvature="0" /><path
         d="m 109.74,28.97 v 2.74"
         style="fill:none;stroke:#333333;stroke-width:1.07000005;stroke-linecap:butt;stroke-linejoin:round;stroke-miterlimit:10;stroke-dasharray:none;stroke-opacity:1"
         id="path188"
         inkscape:connector-curvature="0" /><path
         d="m 133.45,28.97 v 2.74"
         style="fill:none;stroke:#333333;stroke-width:1.07000005;stroke-linecap:butt;stroke-linejoin:round;stroke-miterlimit:10;stroke-dasharray:none;stroke-opacity:1"
         id="path190"
         inkscape:connector-curvature="0" /><path
         d="m 157.17,28.97 v 2.74"
         style="fill:none;stroke:#333333;stroke-width:1.07000005;stroke-linecap:butt;stroke-linejoin:round;stroke-miterlimit:10;stroke-dasharray:none;stroke-opacity:1"
         id="path192"
         inkscape:connector-curvature="0" /><path
         d="m 180.88,28.97 v 2.74"
         style="fill:none;stroke:#333333;stroke-width:1.07000005;stroke-linecap:butt;stroke-linejoin:round;stroke-miterlimit:10;stroke-dasharray:none;stroke-opacity:1"
         id="path194"
         inkscape:connector-curvature="0" /><path
         d="m 204.6,28.97 v 2.74"
         style="fill:none;stroke:#333333;stroke-width:1.07000005;stroke-linecap:butt;stroke-linejoin:round;stroke-miterlimit:10;stroke-dasharray:none;stroke-opacity:1"
         id="path196"
         inkscape:connector-curvature="0" /><path
         d="m 228.31,28.97 v 2.74"
         style="fill:none;stroke:#333333;stroke-width:1.07000005;stroke-linecap:butt;stroke-linejoin:round;stroke-miterlimit:10;stroke-dasharray:none;stroke-opacity:1"
         id="path198"
         inkscape:connector-curvature="0" /><path
         d="m 252.03,28.97 v 2.74"
         style="fill:none;stroke:#333333;stroke-width:1.07000005;stroke-linecap:butt;stroke-linejoin:round;stroke-miterlimit:10;stroke-dasharray:none;stroke-opacity:1"
         id="path200"
         inkscape:connector-curvature="0" /><path
         d="m 275.74,28.97 v 2.74"
         style="fill:none;stroke:#333333;stroke-width:1.07000005;stroke-linecap:butt;stroke-linejoin:round;stroke-miterlimit:10;stroke-dasharray:none;stroke-opacity:1"
         id="path202"
         inkscape:connector-curvature="0" /><path
         d="m 299.46,28.97 v 2.74"
         style="fill:none;stroke:#333333;stroke-width:1.07000005;stroke-linecap:butt;stroke-linejoin:round;stroke-miterlimit:10;stroke-dasharray:none;stroke-opacity:1"
         id="path204"
         inkscape:connector-curvature="0" /><path
         d="m 323.17,28.97 v 2.74"
         style="fill:none;stroke:#333333;stroke-width:1.07000005;stroke-linecap:butt;stroke-linejoin:round;stroke-miterlimit:10;stroke-dasharray:none;stroke-opacity:1"
         id="path206"
         inkscape:connector-curvature="0" /><path
         d="m 346.89,28.97 v 2.74"
         style="fill:none;stroke:#333333;stroke-width:1.07000005;stroke-linecap:butt;stroke-linejoin:round;stroke-miterlimit:10;stroke-dasharray:none;stroke-opacity:1"
         id="path208"
         inkscape:connector-curvature="0" /><path
         d="m 370.6,28.97 v 2.74"
         style="fill:none;stroke:#333333;stroke-width:1.07000005;stroke-linecap:butt;stroke-linejoin:round;stroke-miterlimit:10;stroke-dasharray:none;stroke-opacity:1"
         id="path210"
         inkscape:connector-curvature="0" /><path
         d="m 394.32,28.97 v 2.74"
         style="fill:none;stroke:#333333;stroke-width:1.07000005;stroke-linecap:butt;stroke-linejoin:round;stroke-miterlimit:10;stroke-dasharray:none;stroke-opacity:1"
         id="path212"
         inkscape:connector-curvature="0" /><path
         d="m 418.03,28.97 v 2.74"
         style="fill:none;stroke:#333333;stroke-width:1.07000005;stroke-linecap:butt;stroke-linejoin:round;stroke-miterlimit:10;stroke-dasharray:none;stroke-opacity:1"
         id="path214"
         inkscape:connector-curvature="0" /><path
         d="m 441.75,28.97 v 2.74"
         style="fill:none;stroke:#333333;stroke-width:1.07000005;stroke-linecap:butt;stroke-linejoin:round;stroke-miterlimit:10;stroke-dasharray:none;stroke-opacity:1"
         id="path216"
         inkscape:connector-curvature="0" /><path
         d="m 465.46,28.97 v 2.74"
         style="fill:none;stroke:#333333;stroke-width:1.07000005;stroke-linecap:butt;stroke-linejoin:round;stroke-miterlimit:10;stroke-dasharray:none;stroke-opacity:1"
         id="path218"
         inkscape:connector-curvature="0" /><path
         d="m 489.18,28.97 v 2.74"
         style="fill:none;stroke:#333333;stroke-width:1.07000005;stroke-linecap:butt;stroke-linejoin:round;stroke-miterlimit:10;stroke-dasharray:none;stroke-opacity:1"
         id="path220"
         inkscape:connector-curvature="0" /></g><g
       id="g222" /><g
       id="g224"><text
         transform="matrix(1,0,0,-1,54.8,20.32)"
         style="font-variant:normal;font-weight:normal;font-size:9px;font-family:Helvetica;-inkscape-font-specification:Helvetica;writing-mode:lr-tb;fill:#4d4d4d;fill-opacity:1;fill-rule:nonzero;stroke:none"
         id="text228"><tspan
           x="0 5.0040002 10.008"
           y="0"
           sodipodi:role="line"
           id="tspan226">100</tspan></text>
<text
         transform="matrix(1,0,0,-1,78.52,20.32)"
         style="font-variant:normal;font-weight:normal;font-size:9px;font-family:Helvetica;-inkscape-font-specification:Helvetica;writing-mode:lr-tb;fill:#4d4d4d;fill-opacity:1;fill-rule:nonzero;stroke:none"
         id="text232"><tspan
           x="0 5.0040002 10.008"
           y="0"
           sodipodi:role="line"
           id="tspan230">150</tspan></text>
<text
         transform="matrix(1,0,0,-1,102.23,20.32)"
         style="font-variant:normal;font-weight:normal;font-size:9px;font-family:Helvetica;-inkscape-font-specification:Helvetica;writing-mode:lr-tb;fill:#4d4d4d;fill-opacity:1;fill-rule:nonzero;stroke:none"
         id="text236"><tspan
           x="0 5.0040002 10.008"
           y="0"
           sodipodi:role="line"
           id="tspan234">200</tspan></text>
<text
         transform="matrix(1,0,0,-1,125.95,20.32)"
         style="font-variant:normal;font-weight:normal;font-size:9px;font-family:Helvetica;-inkscape-font-specification:Helvetica;writing-mode:lr-tb;fill:#4d4d4d;fill-opacity:1;fill-rule:nonzero;stroke:none"
         id="text240"><tspan
           x="0 5.0040002 10.008"
           y="0"
           sodipodi:role="line"
           id="tspan238">250</tspan></text>
<text
         transform="matrix(1,0,0,-1,149.66,20.32)"
         style="font-variant:normal;font-weight:normal;font-size:9px;font-family:Helvetica;-inkscape-font-specification:Helvetica;writing-mode:lr-tb;fill:#4d4d4d;fill-opacity:1;fill-rule:nonzero;stroke:none"
         id="text244"><tspan
           x="0 5.0040002 10.008"
           y="0"
           sodipodi:role="line"
           id="tspan242">300</tspan></text>
<text
         transform="matrix(1,0,0,-1,173.38,20.32)"
         style="font-variant:normal;font-weight:normal;font-size:9px;font-family:Helvetica;-inkscape-font-specification:Helvetica;writing-mode:lr-tb;fill:#4d4d4d;fill-opacity:1;fill-rule:nonzero;stroke:none"
         id="text248"><tspan
           x="0 5.0040002 10.008"
           y="0"
           sodipodi:role="line"
           id="tspan246">350</tspan></text>
<text
         transform="matrix(1,0,0,-1,197.09,20.32)"
         style="font-variant:normal;font-weight:normal;font-size:9px;font-family:Helvetica;-inkscape-font-specification:Helvetica;writing-mode:lr-tb;fill:#4d4d4d;fill-opacity:1;fill-rule:nonzero;stroke:none"
         id="text252"><tspan
           x="0 5.0040002 10.008"
           y="0"
           sodipodi:role="line"
           id="tspan250">400</tspan></text>
<text
         transform="matrix(1,0,0,-1,220.81,20.32)"
         style="font-variant:normal;font-weight:normal;font-size:9px;font-family:Helvetica;-inkscape-font-specification:Helvetica;writing-mode:lr-tb;fill:#4d4d4d;fill-opacity:1;fill-rule:nonzero;stroke:none"
         id="text256"><tspan
           x="0 5.0040002 10.008"
           y="0"
           sodipodi:role="line"
           id="tspan254">450</tspan></text>
<text
         transform="matrix(1,0,0,-1,244.52,20.32)"
         style="font-variant:normal;font-weight:normal;font-size:9px;font-family:Helvetica;-inkscape-font-specification:Helvetica;writing-mode:lr-tb;fill:#4d4d4d;fill-opacity:1;fill-rule:nonzero;stroke:none"
         id="text260"><tspan
           x="0 5.0040002 10.008"
           y="0"
           sodipodi:role="line"
           id="tspan258">500</tspan></text>
<text
         transform="matrix(1,0,0,-1,268.24,20.32)"
         style="font-variant:normal;font-weight:normal;font-size:9px;font-family:Helvetica;-inkscape-font-specification:Helvetica;writing-mode:lr-tb;fill:#4d4d4d;fill-opacity:1;fill-rule:nonzero;stroke:none"
         id="text264"><tspan
           x="0 5.0040002 10.008"
           y="0"
           sodipodi:role="line"
           id="tspan262">550</tspan></text>
<text
         transform="matrix(1,0,0,-1,291.95,20.32)"
         style="font-variant:normal;font-weight:normal;font-size:9px;font-family:Helvetica;-inkscape-font-specification:Helvetica;writing-mode:lr-tb;fill:#4d4d4d;fill-opacity:1;fill-rule:nonzero;stroke:none"
         id="text268"><tspan
           x="0 5.0040002 10.008"
           y="0"
           sodipodi:role="line"
           id="tspan266">600</tspan></text>
<text
         transform="matrix(1,0,0,-1,315.67,20.32)"
         style="font-variant:normal;font-weight:normal;font-size:9px;font-family:Helvetica;-inkscape-font-specification:Helvetica;writing-mode:lr-tb;fill:#4d4d4d;fill-opacity:1;fill-rule:nonzero;stroke:none"
         id="text272"><tspan
           x="0 5.0040002 10.008"
           y="0"
           sodipodi:role="line"
           id="tspan270">650</tspan></text>
<text
         transform="matrix(1,0,0,-1,339.38,20.32)"
         style="font-variant:normal;font-weight:normal;font-size:9px;font-family:Helvetica;-inkscape-font-specification:Helvetica;writing-mode:lr-tb;fill:#4d4d4d;fill-opacity:1;fill-rule:nonzero;stroke:none"
         id="text276"><tspan
           x="0 5.0040002 10.008"
           y="0"
           sodipodi:role="line"
           id="tspan274">700</tspan></text>
<text
         transform="matrix(1,0,0,-1,363.1,20.32)"
         style="font-variant:normal;font-weight:normal;font-size:9px;font-family:Helvetica;-inkscape-font-specification:Helvetica;writing-mode:lr-tb;fill:#4d4d4d;fill-opacity:1;fill-rule:nonzero;stroke:none"
         id="text280"><tspan
           x="0 5.0040002 10.008"
           y="0"
           sodipodi:role="line"
           id="tspan278">750</tspan></text>
<text
         transform="matrix(1,0,0,-1,386.81,20.32)"
         style="font-variant:normal;font-weight:normal;font-size:9px;font-family:Helvetica;-inkscape-font-specification:Helvetica;writing-mode:lr-tb;fill:#4d4d4d;fill-opacity:1;fill-rule:nonzero;stroke:none"
         id="text284"><tspan
           x="0 5.0040002 10.008"
           y="0"
           sodipodi:role="line"
           id="tspan282">800</tspan></text>
<text
         transform="matrix(1,0,0,-1,410.53,20.32)"
         style="font-variant:normal;font-weight:normal;font-size:9px;font-family:Helvetica;-inkscape-font-specification:Helvetica;writing-mode:lr-tb;fill:#4d4d4d;fill-opacity:1;fill-rule:nonzero;stroke:none"
         id="text288"><tspan
           x="0 5.0040002 10.008"
           y="0"
           sodipodi:role="line"
           id="tspan286">850</tspan></text>
<text
         transform="matrix(1,0,0,-1,434.24,20.32)"
         style="font-variant:normal;font-weight:normal;font-size:9px;font-family:Helvetica;-inkscape-font-specification:Helvetica;writing-mode:lr-tb;fill:#4d4d4d;fill-opacity:1;fill-rule:nonzero;stroke:none"
         id="text292"><tspan
           x="0 5.0040002 10.008"
           y="0"
           sodipodi:role="line"
           id="tspan290">900</tspan></text>
<text
         transform="matrix(1,0,0,-1,457.96,20.32)"
         style="font-variant:normal;font-weight:normal;font-size:9px;font-family:Helvetica;-inkscape-font-specification:Helvetica;writing-mode:lr-tb;fill:#4d4d4d;fill-opacity:1;fill-rule:nonzero;stroke:none"
         id="text296"><tspan
           x="0 5.0040002 10.008"
           y="0"
           sodipodi:role="line"
           id="tspan294">950</tspan></text>
<text
         transform="matrix(1,0,0,-1,479.17,20.32)"
         style="font-variant:normal;font-weight:normal;font-size:9px;font-family:Helvetica;-inkscape-font-specification:Helvetica;writing-mode:lr-tb;fill:#4d4d4d;fill-opacity:1;fill-rule:nonzero;stroke:none"
         id="text300"><tspan
           x="0 5.0040002 10.008 15.012"
           y="0"
           sodipodi:role="line"
           id="tspan298">1000</tspan></text>
</g><g
       id="g302" /><g
       id="g304" /><g
       id="g306" /><g
       id="g308" /><g
       id="g310" /><g
       id="g312" /><g
       id="g314" /><g
       id="g316"><text
         transform="matrix(1,0,0,-1,259.54,7.88)"
         style="font-variant:normal;font-weight:normal;font-size:11px;font-family:Helvetica;-inkscape-font-specification:Helvetica;writing-mode:lr-tb;fill:#000000;fill-opacity:1;fill-rule:nonzero;stroke:none"
         id="text320"><tspan
           x="0 8.5579996 14.674 20.790001 26.906"
           y="0"
           sodipodi:role="line"
           id="tspan318">Genes</tspan></text>
</g><g
       id="g322" /><g
       id="g324" /><g
       id="g326"><text
         transform="matrix(0,1,1,0,13.38,88.93)"
         style="font-variant:normal;font-weight:normal;font-size:11px;font-family:Helvetica;-inkscape-font-specification:Helvetica;writing-mode:lr-tb;fill:#000000;fill-opacity:1;fill-rule:nonzero;stroke:none"
         id="text330"><tspan
           sodipodi:role="line"
           id="tspan328"
           x="0"
           y="0">Average sihouette width</tspan></text>
</g><g
       id="g332" /><g
       id="g334" /><g
       id="g336" /><g
       id="g338" /><g
       id="g340" /><g
       id="g342" /><g
       id="g344" /><g
       id="g346" /><g
       id="g348" /><g
       id="g350" /><g
       id="g352" /><g
       id="g354" /><g
       id="g356" /></g></svg>