<?xml version="1.0" encoding="UTF-8" standalone="no"?>
<!-- Created with Inkscape (http://www.inkscape.org/) -->

<svg
   xmlns:dc="http://purl.org/dc/elements/1.1/"
   xmlns:cc="http://creativecommons.org/ns#"
   xmlns:rdf="http://www.w3.org/1999/02/22-rdf-syntax-ns#"
   xmlns:svg="http://www.w3.org/2000/svg"
   xmlns="http://www.w3.org/2000/svg"
   xmlns:sodipodi="http://sodipodi.sourceforge.net/DTD/sodipodi-0.dtd"
   xmlns:inkscape="http://www.inkscape.org/namespaces/inkscape"
   version="1.1"
   id="svg2"
   xml:space="preserve"
   width="688"
   height="368"
   viewBox="0 0 688 368"
   sodipodi:docname="Kmean_cluster_150genes.svg"
   inkscape:version="0.92.5 (2060ec1f9f, 2020-04-08)"><metadata
     id="metadata8"><rdf:RDF><cc:Work
         rdf:about=""><dc:format>image/svg+xml</dc:format><dc:type
           rdf:resource="http://purl.org/dc/dcmitype/StillImage" /><dc:title></dc:title></cc:Work></rdf:RDF></metadata><defs
     id="defs6"><clipPath
       clipPathUnits="userSpaceOnUse"
       id="clipPath46"><path
         d="M 42.04,36.38 H 510.02 V 251.74 H 42.04 Z"
         id="path44"
         inkscape:connector-curvature="0" /></clipPath></defs><sodipodi:namedview
     pagecolor="#ffffff"
     bordercolor="#666666"
     borderopacity="1"
     objecttolerance="10"
     gridtolerance="10"
     guidetolerance="10"
     inkscape:pageopacity="0"
     inkscape:pageshadow="2"
     inkscape:window-width="1848"
     inkscape:window-height="1376"
     id="namedview4"
     showgrid="false"
     inkscape:zoom="0.64130435"
     inkscape:cx="344"
     inkscape:cy="184"
     inkscape:window-x="72"
     inkscape:window-y="27"
     inkscape:window-maximized="1"
     inkscape:current-layer="g10" /><g
     id="g10"
     inkscape:groupmode="layer"
     inkscape:label="Kmean_cluster_150genes"
     transform="matrix(1.3333333,0,0,-1.3333333,0,368)"><g
       id="g12" /><g
       id="g14" /><g
       id="g16" /><g
       id="g18" /><g
       id="g20" /><g
       id="g22" /><g
       id="g24" /><g
       id="g26" /><g
       id="g28" /><g
       id="g30" /><g
       id="g32" /><g
       id="g38" /><g
       id="g40"><g
         id="g42"
         clip-path="url(#clipPath46)"><path
           d="M 42.04,36.38 H 510.02 V 251.74 H 42.04 Z"
           style="fill:#ffffff;fill-opacity:1;fill-rule:nonzero;stroke:none"
           id="path48"
           inkscape:connector-curvature="0" /><path
           d="m 69.57,46.17 45.88,175.09 45.88,20.69 45.88,-37.11 45.88,1.16 45.88,-17.16 45.88,-6.75 45.88,9.08 45.88,-17.19 45.88,12.3"
           style="fill:none;stroke:#4682b4;stroke-width:1.07000005;stroke-linecap:butt;stroke-linejoin:round;stroke-miterlimit:10;stroke-dasharray:none;stroke-opacity:1"
           id="path50"
           inkscape:connector-curvature="0" /><path
           d="m 67.4,46.17 c 0,1.19 0.98,2.17 2.17,2.17 1.19,0 2.17,-0.98 2.17,-2.17 0,-1.2 -0.98,-2.17 -2.17,-2.17 -1.19,0 -2.17,0.97 -2.17,2.17"
           style="fill:#4682b4;fill-opacity:1;fill-rule:nonzero;stroke:#4682b4;stroke-width:0.70999998;stroke-linecap:round;stroke-linejoin:round;stroke-miterlimit:10;stroke-dasharray:none;stroke-opacity:1"
           id="path52"
           inkscape:connector-curvature="0" /><path
           d="m 113.28,221.26 c 0,1.19 0.98,2.16 2.17,2.16 1.19,0 2.17,-0.97 2.17,-2.16 0,-1.2 -0.98,-2.17 -2.17,-2.17 -1.19,0 -2.17,0.97 -2.17,2.17"
           style="fill:#4682b4;fill-opacity:1;fill-rule:nonzero;stroke:#4682b4;stroke-width:0.70999998;stroke-linecap:round;stroke-linejoin:round;stroke-miterlimit:10;stroke-dasharray:none;stroke-opacity:1"
           id="path54"
           inkscape:connector-curvature="0" /><path
           d="m 159.16,241.95 c 0,1.2 0.98,2.17 2.17,2.17 1.19,0 2.17,-0.97 2.17,-2.17 0,-1.19 -0.98,-2.16 -2.17,-2.16 -1.19,0 -2.17,0.97 -2.17,2.16"
           style="fill:#4682b4;fill-opacity:1;fill-rule:nonzero;stroke:#4682b4;stroke-width:0.70999998;stroke-linecap:round;stroke-linejoin:round;stroke-miterlimit:10;stroke-dasharray:none;stroke-opacity:1"
           id="path56"
           inkscape:connector-curvature="0" /><path
           d="m 205.04,204.84 c 0,1.19 0.98,2.17 2.17,2.17 1.19,0 2.17,-0.98 2.17,-2.17 0,-1.2 -0.98,-2.17 -2.17,-2.17 -1.19,0 -2.17,0.97 -2.17,2.17"
           style="fill:#4682b4;fill-opacity:1;fill-rule:nonzero;stroke:#4682b4;stroke-width:0.70999998;stroke-linecap:round;stroke-linejoin:round;stroke-miterlimit:10;stroke-dasharray:none;stroke-opacity:1"
           id="path58"
           inkscape:connector-curvature="0" /><path
           d="m 250.92,206 c 0,1.19 0.98,2.17 2.17,2.17 1.19,0 2.17,-0.98 2.17,-2.17 0,-1.19 -0.98,-2.17 -2.17,-2.17 -1.19,0 -2.17,0.98 -2.17,2.17"
           style="fill:#4682b4;fill-opacity:1;fill-rule:nonzero;stroke:#4682b4;stroke-width:0.70999998;stroke-linecap:round;stroke-linejoin:round;stroke-miterlimit:10;stroke-dasharray:none;stroke-opacity:1"
           id="path60"
           inkscape:connector-curvature="0" /><path
           d="m 296.8,188.84 c 0,1.2 0.98,2.17 2.17,2.17 1.2,0 2.17,-0.97 2.17,-2.17 0,-1.19 -0.97,-2.16 -2.17,-2.16 -1.19,0 -2.17,0.97 -2.17,2.16"
           style="fill:#4682b4;fill-opacity:1;fill-rule:nonzero;stroke:#4682b4;stroke-width:0.70999998;stroke-linecap:round;stroke-linejoin:round;stroke-miterlimit:10;stroke-dasharray:none;stroke-opacity:1"
           id="path62"
           inkscape:connector-curvature="0" /><path
           d="m 342.68,182.09 c 0,1.19 0.98,2.17 2.17,2.17 1.2,0 2.17,-0.98 2.17,-2.17 0,-1.19 -0.97,-2.17 -2.17,-2.17 -1.19,0 -2.17,0.98 -2.17,2.17"
           style="fill:#4682b4;fill-opacity:1;fill-rule:nonzero;stroke:#4682b4;stroke-width:0.70999998;stroke-linecap:round;stroke-linejoin:round;stroke-miterlimit:10;stroke-dasharray:none;stroke-opacity:1"
           id="path64"
           inkscape:connector-curvature="0" /><path
           d="m 388.57,191.17 c 0,1.19 0.97,2.17 2.16,2.17 1.2,0 2.17,-0.98 2.17,-2.17 0,-1.19 -0.97,-2.17 -2.17,-2.17 -1.19,0 -2.16,0.98 -2.16,2.17"
           style="fill:#4682b4;fill-opacity:1;fill-rule:nonzero;stroke:#4682b4;stroke-width:0.70999998;stroke-linecap:round;stroke-linejoin:round;stroke-miterlimit:10;stroke-dasharray:none;stroke-opacity:1"
           id="path66"
           inkscape:connector-curvature="0" /><path
           d="m 434.45,173.98 c 0,1.19 0.97,2.17 2.16,2.17 1.2,0 2.17,-0.98 2.17,-2.17 0,-1.19 -0.97,-2.17 -2.17,-2.17 -1.19,0 -2.16,0.98 -2.16,2.17"
           style="fill:#4682b4;fill-opacity:1;fill-rule:nonzero;stroke:#4682b4;stroke-width:0.70999998;stroke-linecap:round;stroke-linejoin:round;stroke-miterlimit:10;stroke-dasharray:none;stroke-opacity:1"
           id="path68"
           inkscape:connector-curvature="0" /><path
           d="m 480.33,186.28 c 0,1.2 0.97,2.17 2.16,2.17 1.2,0 2.17,-0.97 2.17,-2.17 0,-1.19 -0.97,-2.16 -2.17,-2.16 -1.19,0 -2.16,0.97 -2.16,2.16"
           style="fill:#4682b4;fill-opacity:1;fill-rule:nonzero;stroke:#4682b4;stroke-width:0.70999998;stroke-linecap:round;stroke-linejoin:round;stroke-miterlimit:10;stroke-dasharray:none;stroke-opacity:1"
           id="path70"
           inkscape:connector-curvature="0" /><path
           d="M 161.33,36.38 V 251.74"
           style="fill:none;stroke:#4682b4;stroke-width:1.07000005;stroke-linecap:butt;stroke-linejoin:round;stroke-miterlimit:10;stroke-dasharray:4.27, 4.27;stroke-dashoffset:0;stroke-opacity:1"
           id="path72"
           inkscape:connector-curvature="0" /></g></g><g
       id="g74" /><g
       id="g76" /><g
       id="g78" /><g
       id="g80" /><g
       id="g82" /><g
       id="g84" /><g
       id="g86" /><g
       id="g88" /><g
       id="g90" /><g
       id="g92" /><g
       id="g94" /><g
       id="g96" /><g
       id="g98"><path
         d="M 42.04,36.38 V 251.74"
         style="fill:none;stroke:#000000;stroke-width:1.07000005;stroke-linecap:butt;stroke-linejoin:round;stroke-miterlimit:10;stroke-dasharray:none;stroke-opacity:1"
         id="path100"
         inkscape:connector-curvature="0" /></g><g
       id="g102" /><g
       id="g104" /><g
       id="g106"><text
         transform="matrix(1,0,0,-1,19.98,41.86)"
         style="font-variant:normal;font-weight:normal;font-size:12px;font-family:Helvetica;-inkscape-font-specification:Helvetica;writing-mode:lr-tb;fill:#000000;fill-opacity:1;fill-rule:nonzero;stroke:none"
         id="text110"><tspan
           x="0 6.6719999 10.008"
           y="0"
           sodipodi:role="line"
           id="tspan108">0.0</tspan></text>
<text
         transform="matrix(1,0,0,-1,19.98,82.82)"
         style="font-variant:normal;font-weight:normal;font-size:12px;font-family:Helvetica;-inkscape-font-specification:Helvetica;writing-mode:lr-tb;fill:#000000;fill-opacity:1;fill-rule:nonzero;stroke:none"
         id="text114"><tspan
           x="0 6.6719999 10.008"
           y="0"
           sodipodi:role="line"
           id="tspan112">0.1</tspan></text>
<text
         transform="matrix(1,0,0,-1,19.98,123.78)"
         style="font-variant:normal;font-weight:normal;font-size:12px;font-family:Helvetica;-inkscape-font-specification:Helvetica;writing-mode:lr-tb;fill:#000000;fill-opacity:1;fill-rule:nonzero;stroke:none"
         id="text118"><tspan
           x="0 6.6719999 10.008"
           y="0"
           sodipodi:role="line"
           id="tspan116">0.2</tspan></text>
<text
         transform="matrix(1,0,0,-1,19.98,164.73)"
         style="font-variant:normal;font-weight:normal;font-size:12px;font-family:Helvetica;-inkscape-font-specification:Helvetica;writing-mode:lr-tb;fill:#000000;fill-opacity:1;fill-rule:nonzero;stroke:none"
         id="text122"><tspan
           x="0 6.6719999 10.008"
           y="0"
           sodipodi:role="line"
           id="tspan120">0.3</tspan></text>
<text
         transform="matrix(1,0,0,-1,19.98,205.69)"
         style="font-variant:normal;font-weight:normal;font-size:12px;font-family:Helvetica;-inkscape-font-specification:Helvetica;writing-mode:lr-tb;fill:#000000;fill-opacity:1;fill-rule:nonzero;stroke:none"
         id="text126"><tspan
           x="0 6.6719999 10.008"
           y="0"
           sodipodi:role="line"
           id="tspan124">0.4</tspan></text>
<text
         transform="matrix(1,0,0,-1,19.98,246.65)"
         style="font-variant:normal;font-weight:normal;font-size:12px;font-family:Helvetica;-inkscape-font-specification:Helvetica;writing-mode:lr-tb;fill:#000000;fill-opacity:1;fill-rule:nonzero;stroke:none"
         id="text130"><tspan
           x="0 6.6719999 10.008"
           y="0"
           sodipodi:role="line"
           id="tspan128">0.5</tspan></text>
</g><g
       id="g132" /><g
       id="g134" /><g
       id="g136"><path
         d="m 39.05,46.17 h 2.99"
         style="fill:none;stroke:#000000;stroke-width:1.15999997;stroke-linecap:butt;stroke-linejoin:round;stroke-miterlimit:10;stroke-dasharray:none;stroke-opacity:1"
         id="path138"
         inkscape:connector-curvature="0" /><path
         d="m 39.05,87.13 h 2.99"
         style="fill:none;stroke:#000000;stroke-width:1.15999997;stroke-linecap:butt;stroke-linejoin:round;stroke-miterlimit:10;stroke-dasharray:none;stroke-opacity:1"
         id="path140"
         inkscape:connector-curvature="0" /><path
         d="m 39.05,128.08 h 2.99"
         style="fill:none;stroke:#000000;stroke-width:1.15999997;stroke-linecap:butt;stroke-linejoin:round;stroke-miterlimit:10;stroke-dasharray:none;stroke-opacity:1"
         id="path142"
         inkscape:connector-curvature="0" /><path
         d="m 39.05,169.04 h 2.99"
         style="fill:none;stroke:#000000;stroke-width:1.15999997;stroke-linecap:butt;stroke-linejoin:round;stroke-miterlimit:10;stroke-dasharray:none;stroke-opacity:1"
         id="path144"
         inkscape:connector-curvature="0" /><path
         d="m 39.05,210 h 2.99"
         style="fill:none;stroke:#000000;stroke-width:1.15999997;stroke-linecap:butt;stroke-linejoin:round;stroke-miterlimit:10;stroke-dasharray:none;stroke-opacity:1"
         id="path146"
         inkscape:connector-curvature="0" /><path
         d="m 39.05,250.96 h 2.99"
         style="fill:none;stroke:#000000;stroke-width:1.15999997;stroke-linecap:butt;stroke-linejoin:round;stroke-miterlimit:10;stroke-dasharray:none;stroke-opacity:1"
         id="path148"
         inkscape:connector-curvature="0" /></g><g
       id="g150" /><g
       id="g152" /><g
       id="g154" /><g
       id="g156" /><g
       id="g158" /><g
       id="g160" /><g
       id="g162" /><g
       id="g164"><path
         d="M 42.04,36.38 H 510.02"
         style="fill:none;stroke:#000000;stroke-width:1.07000005;stroke-linecap:butt;stroke-linejoin:round;stroke-miterlimit:10;stroke-dasharray:none;stroke-opacity:1"
         id="path166"
         inkscape:connector-curvature="0" /></g><g
       id="g168" /><g
       id="g170" /><g
       id="g172"><path
         d="m 69.57,33.39 v 2.99"
         style="fill:none;stroke:#000000;stroke-width:1.15999997;stroke-linecap:butt;stroke-linejoin:round;stroke-miterlimit:10;stroke-dasharray:none;stroke-opacity:1"
         id="path174"
         inkscape:connector-curvature="0" /><path
         d="m 115.45,33.39 v 2.99"
         style="fill:none;stroke:#000000;stroke-width:1.15999997;stroke-linecap:butt;stroke-linejoin:round;stroke-miterlimit:10;stroke-dasharray:none;stroke-opacity:1"
         id="path176"
         inkscape:connector-curvature="0" /><path
         d="m 161.33,33.39 v 2.99"
         style="fill:none;stroke:#000000;stroke-width:1.15999997;stroke-linecap:butt;stroke-linejoin:round;stroke-miterlimit:10;stroke-dasharray:none;stroke-opacity:1"
         id="path178"
         inkscape:connector-curvature="0" /><path
         d="m 207.21,33.39 v 2.99"
         style="fill:none;stroke:#000000;stroke-width:1.15999997;stroke-linecap:butt;stroke-linejoin:round;stroke-miterlimit:10;stroke-dasharray:none;stroke-opacity:1"
         id="path180"
         inkscape:connector-curvature="0" /><path
         d="m 253.09,33.39 v 2.99"
         style="fill:none;stroke:#000000;stroke-width:1.15999997;stroke-linecap:butt;stroke-linejoin:round;stroke-miterlimit:10;stroke-dasharray:none;stroke-opacity:1"
         id="path182"
         inkscape:connector-curvature="0" /><path
         d="m 298.97,33.39 v 2.99"
         style="fill:none;stroke:#000000;stroke-width:1.15999997;stroke-linecap:butt;stroke-linejoin:round;stroke-miterlimit:10;stroke-dasharray:none;stroke-opacity:1"
         id="path184"
         inkscape:connector-curvature="0" /><path
         d="m 344.85,33.39 v 2.99"
         style="fill:none;stroke:#000000;stroke-width:1.15999997;stroke-linecap:butt;stroke-linejoin:round;stroke-miterlimit:10;stroke-dasharray:none;stroke-opacity:1"
         id="path186"
         inkscape:connector-curvature="0" /><path
         d="m 390.73,33.39 v 2.99"
         style="fill:none;stroke:#000000;stroke-width:1.15999997;stroke-linecap:butt;stroke-linejoin:round;stroke-miterlimit:10;stroke-dasharray:none;stroke-opacity:1"
         id="path188"
         inkscape:connector-curvature="0" /><path
         d="m 436.61,33.39 v 2.99"
         style="fill:none;stroke:#000000;stroke-width:1.15999997;stroke-linecap:butt;stroke-linejoin:round;stroke-miterlimit:10;stroke-dasharray:none;stroke-opacity:1"
         id="path190"
         inkscape:connector-curvature="0" /><path
         d="m 482.49,33.39 v 2.99"
         style="fill:none;stroke:#000000;stroke-width:1.15999997;stroke-linecap:butt;stroke-linejoin:round;stroke-miterlimit:10;stroke-dasharray:none;stroke-opacity:1"
         id="path192"
         inkscape:connector-curvature="0" /></g><g
       id="g194" /><g
       id="g196"><text
         transform="matrix(1,0,0,-1,66.23,22.38)"
         style="font-variant:normal;font-weight:normal;font-size:12px;font-family:Helvetica;-inkscape-font-specification:Helvetica;writing-mode:lr-tb;fill:#000000;fill-opacity:1;fill-rule:nonzero;stroke:none"
         id="text200"><tspan
           x="0"
           y="0"
           id="tspan198">1</tspan></text>
<text
         transform="matrix(1,0,0,-1,112.11,22.38)"
         style="font-variant:normal;font-weight:normal;font-size:12px;font-family:Helvetica;-inkscape-font-specification:Helvetica;writing-mode:lr-tb;fill:#000000;fill-opacity:1;fill-rule:nonzero;stroke:none"
         id="text204"><tspan
           x="0"
           y="0"
           id="tspan202">2</tspan></text>
<text
         transform="matrix(1,0,0,-1,158,22.38)"
         style="font-variant:normal;font-weight:normal;font-size:12px;font-family:Helvetica;-inkscape-font-specification:Helvetica;writing-mode:lr-tb;fill:#000000;fill-opacity:1;fill-rule:nonzero;stroke:none"
         id="text208"><tspan
           x="0"
           y="0"
           id="tspan206">3</tspan></text>
<text
         transform="matrix(1,0,0,-1,203.88,22.38)"
         style="font-variant:normal;font-weight:normal;font-size:12px;font-family:Helvetica;-inkscape-font-specification:Helvetica;writing-mode:lr-tb;fill:#000000;fill-opacity:1;fill-rule:nonzero;stroke:none"
         id="text212"><tspan
           x="0"
           y="0"
           id="tspan210">4</tspan></text>
<text
         transform="matrix(1,0,0,-1,249.76,22.38)"
         style="font-variant:normal;font-weight:normal;font-size:12px;font-family:Helvetica;-inkscape-font-specification:Helvetica;writing-mode:lr-tb;fill:#000000;fill-opacity:1;fill-rule:nonzero;stroke:none"
         id="text216"><tspan
           x="0"
           y="0"
           id="tspan214">5</tspan></text>
<text
         transform="matrix(1,0,0,-1,295.64,22.38)"
         style="font-variant:normal;font-weight:normal;font-size:12px;font-family:Helvetica;-inkscape-font-specification:Helvetica;writing-mode:lr-tb;fill:#000000;fill-opacity:1;fill-rule:nonzero;stroke:none"
         id="text220"><tspan
           x="0"
           y="0"
           id="tspan218">6</tspan></text>
<text
         transform="matrix(1,0,0,-1,341.52,22.38)"
         style="font-variant:normal;font-weight:normal;font-size:12px;font-family:Helvetica;-inkscape-font-specification:Helvetica;writing-mode:lr-tb;fill:#000000;fill-opacity:1;fill-rule:nonzero;stroke:none"
         id="text224"><tspan
           x="0"
           y="0"
           id="tspan222">7</tspan></text>
<text
         transform="matrix(1,0,0,-1,387.4,22.38)"
         style="font-variant:normal;font-weight:normal;font-size:12px;font-family:Helvetica;-inkscape-font-specification:Helvetica;writing-mode:lr-tb;fill:#000000;fill-opacity:1;fill-rule:nonzero;stroke:none"
         id="text228"><tspan
           x="0"
           y="0"
           id="tspan226">8</tspan></text>
<text
         transform="matrix(1,0,0,-1,433.28,22.38)"
         style="font-variant:normal;font-weight:normal;font-size:12px;font-family:Helvetica;-inkscape-font-specification:Helvetica;writing-mode:lr-tb;fill:#000000;fill-opacity:1;fill-rule:nonzero;stroke:none"
         id="text232"><tspan
           x="0"
           y="0"
           id="tspan230">9</tspan></text>
<text
         transform="matrix(1,0,0,-1,475.82,22.38)"
         style="font-variant:normal;font-weight:normal;font-size:12px;font-family:Helvetica;-inkscape-font-specification:Helvetica;writing-mode:lr-tb;fill:#000000;fill-opacity:1;fill-rule:nonzero;stroke:none"
         id="text236"><tspan
           x="0 6.6719999"
           y="0"
           sodipodi:role="line"
           id="tspan234">10</tspan></text>
</g><g
       id="g238" /><g
       id="g240" /><g
       id="g242" /><g
       id="g244" /><g
       id="g246" /><g
       id="g248" /><g
       id="g250" /><g
       id="g252"><text
         transform="matrix(1,0,0,-1,221.02,8.38)"
         style="font-variant:normal;font-weight:normal;font-size:12px;font-family:Helvetica;-inkscape-font-specification:Helvetica;writing-mode:lr-tb;fill:#000000;fill-opacity:1;fill-rule:nonzero;stroke:none"
         id="text256"><tspan
           x="0 8.6639996 15.336 25.332001 32.004002 38.675999 42.672001 46.007999 52.68 56.015999 59.352001 65.351997 68.015999 74.688004 80.688004 84.024002 90.695999 94.692001 100.692 104.028"
           y="0"
           sodipodi:role="line"
           id="tspan254">Number of clusters k</tspan></text>
</g><g
       id="g258" /><g
       id="g260" /><g
       id="g262"><text
         transform="matrix(0,1,1,0,14.59,79.15)"
         style="font-variant:normal;font-weight:normal;font-size:12px;font-family:Helvetica;-inkscape-font-specification:Helvetica;writing-mode:lr-tb;fill:#000000;fill-opacity:1;fill-rule:nonzero;stroke:none"
         id="text266"><tspan
           x="0 7.5240002 13.224 19.896 23.771999 30.444 37.116001 43.787998 47.124001 53.124001 55.787998 58.452 65.124001 71.795998 78.468002 85.139999 88.475998 91.811996 98.484001 101.82 110.484 113.148 119.82 123.156"
           y="0"
           sodipodi:role="line"
           id="tspan264">Average silhouette width</tspan></text>
</g><g
       id="g268" /><g
       id="g270" /><g
       id="g272" /><g
       id="g274" /><g
       id="g276" /><g
       id="g278" /><g
       id="g280"><text
         transform="matrix(1,0,0,-1,42.04,260.72)"
         style="font-variant:normal;font-weight:normal;font-size:14px;font-family:Helvetica;-inkscape-font-specification:Helvetica;writing-mode:lr-tb;fill:#000000;fill-opacity:1;fill-rule:nonzero;stroke:none"
         id="text284"><tspan
           x="0 10.892 18.676001 22.568001 25.676001 37.338001 45.122002 48.23 52.122002 59.765999 67.550003 79.211998 86.996002 94.779999 99.442001 103.334 111.118 115.01 118.902 125.902 129.00999 136.79401 143.79401 147.686 155.47 160.132"
           y="0"
           sodipodi:role="line"
           id="tspan282">Optimal number of clusters</tspan></text>
</g><g
       id="g286" /><g
       id="g288" /><g
       id="g290" /><g
       id="g292" /><g
       id="g294" /><g
       id="g296" /><g
       id="g298" /></g></svg>